# xmcd CD database file
#
# Track frame offsets:
#	150
#	20439
#	40103
#	58741
#	81065
#
# Disc length: 1322 seconds
#
# Revision: 0
# Processed by: cddbd v1.5.2PL0 Copyright (c) Steve Scherf et al.
# Submitted via: CDex 1.51
#
DISCID=34052805
DTITLE=Ian parker - Demons and Doubters
DYEAR=2009
DGENRE=Blues
TTITLE0=Winding River
TTITLE1=Gorow 4
TTITLE2=Lovers and Friends
TTITLE3=Lost
TTITLE4=Keep me Walking
EXTD=YEAR: 2009
EXTT0=
EXTT1=
EXTT2=
EXTT3=
EXTT4=
PLAYORDER=
